<?xml version="1.0" encoding="UTF-8"?>
<svg xmlns="http://www.w3.org/2000/svg" xmlns:xlink="http://www.w3.org/1999/xlink" width="62px" height="28px" viewBox="0 0 62 28" version="1.1">
<g id="surface1">
<rect x="0" y="0" width="62" height="28" style="fill:rgb(100%,100%,100%);fill-opacity:1;stroke:none;"/>
<path style=" stroke:none;fill-rule:nonzero;fill:rgb(12.54902%,11.372549%,11.372549%);fill-opacity:1;" d="M 18.019531 4 L 18.019531 8.632812 L 8.621094 8.632812 L 8.621094 13.632812 L 15.652344 13.632812 L 15.652344 18.128906 L 8.621094 18.128906 L 8.621094 27.730469 L 3 27.730469 L 3 4 Z M 18.019531 4 "/>
<path style=" stroke:none;fill-rule:nonzero;fill:rgb(12.54902%,11.372549%,11.372549%);fill-opacity:1;" d="M 32.144531 8.664062 C 34.289062 8.664062 36 9.386719 37.269531 10.828125 C 38.5625 12.246094 39.210938 14.207031 39.210938 16.710938 L 39.210938 27.730469 L 33.621094 27.730469 L 33.621094 17.488281 C 33.621094 16.226562 33.304688 15.246094 32.667969 14.546875 C 32.035156 13.847656 31.179688 13.5 30.105469 13.5 C 29.03125 13.5 28.179688 13.847656 27.542969 14.546875 C 26.90625 15.246094 26.589844 16.226562 26.589844 17.488281 L 26.589844 27.730469 L 20.972656 27.730469 L 20.972656 8.867188 L 26.589844 8.867188 L 26.589844 11.367188 C 27.160156 10.535156 27.925781 9.882812 28.890625 9.410156 C 29.855469 8.914062 30.9375 8.664062 32.144531 8.664062 Z M 32.144531 8.664062 "/>
<path style=" stroke:none;fill-rule:nonzero;fill:rgb(12.54902%,11.372549%,11.372549%);fill-opacity:1;" d="M 50.574219 28 C 48.972656 28 47.550781 27.71875 46.300781 27.15625 C 45.050781 26.589844 44.066406 25.824219 43.34375 24.855469 C 42.621094 23.863281 42.214844 22.761719 42.128906 21.542969 L 47.679688 21.542969 C 47.746094 22.195312 48.042969 22.726562 48.570312 23.132812 C 49.09375 23.539062 49.742188 23.742188 50.507812 23.742188 C 51.207031 23.742188 51.746094 23.605469 52.117188 23.335938 C 52.511719 23.042969 52.710938 22.671875 52.710938 22.21875 C 52.710938 21.679688 52.433594 21.285156 51.886719 21.035156 C 51.339844 20.765625 50.453125 20.472656 49.226562 20.15625 C 47.910156 19.84375 46.816406 19.515625 45.941406 19.175781 C 45.0625 18.816406 44.308594 18.265625 43.671875 17.519531 C 43.039062 16.753906 42.71875 15.730469 42.71875 14.445312 C 42.71875 13.363281 43.003906 12.382812 43.574219 11.503906 C 44.164062 10.601562 45.019531 9.894531 46.136719 9.375 C 47.277344 8.855469 48.625 8.597656 50.179688 8.597656 C 52.480469 8.597656 54.285156 9.183594 55.601562 10.355469 C 56.9375 11.527344 57.703125 13.082031 57.902344 15.019531 L 52.710938 15.019531 C 52.621094 14.367188 52.335938 13.847656 51.855469 13.464844 C 51.394531 13.082031 50.78125 12.890625 50.015625 12.890625 C 49.359375 12.890625 48.855469 13.027344 48.503906 13.296875 C 48.152344 13.542969 47.976562 13.894531 47.976562 14.34375 C 47.976562 14.882812 48.25 15.289062 48.796875 15.5625 C 49.367188 15.832031 50.246094 16.101562 51.425781 16.371094 C 52.785156 16.730469 53.890625 17.09375 54.746094 17.453125 C 55.601562 17.792969 56.347656 18.355469 56.980469 19.144531 C 57.636719 19.910156 57.976562 20.945312 58 22.253906 C 58 23.359375 57.691406 24.347656 57.078125 25.226562 C 56.488281 26.085938 55.621094 26.761719 54.484375 27.257812 C 53.367188 27.753906 52.0625 28 50.574219 28 Z M 50.574219 28 "/>
<path style=" stroke:none;fill-rule:nonzero;fill:rgb(100%,87.058824%,87.058824%);fill-opacity:1;" d="M 58 4.488281 C 58 6.6875 56.214844 8.472656 54.011719 8.472656 C 51.8125 8.472656 50.027344 6.6875 50.027344 4.488281 C 50.027344 2.285156 51.8125 0.5 54.011719 0.5 C 56.214844 0.5 58 2.285156 58 4.488281 Z M 58 4.488281 "/>
<path style=" stroke:none;fill-rule:nonzero;fill:rgb(100%,50.196078%,50.196078%);fill-opacity:1;" d="M 57.003906 4.488281 C 57.003906 6.140625 55.664062 7.476562 54.011719 7.476562 C 52.359375 7.476562 51.023438 6.140625 51.023438 4.488281 C 51.023438 2.835938 52.359375 1.496094 54.011719 1.496094 C 55.664062 1.496094 57.003906 2.835938 57.003906 4.488281 Z M 57.003906 4.488281 "/>
<path style=" stroke:none;fill-rule:nonzero;fill:rgb(100%,0%,0%);fill-opacity:1;" d="M 55.675781 4.488281 C 55.675781 5.40625 54.929688 6.148438 54.011719 6.148438 C 53.09375 6.148438 52.351562 5.40625 52.351562 4.488281 C 52.351562 3.570312 53.09375 2.824219 54.011719 2.824219 C 54.929688 2.824219 55.675781 3.570312 55.675781 4.488281 Z M 55.675781 4.488281 "/>
</g>
</svg>
